P3
100 50
255
0 0 0
0 0 0
0 0 0
0 0 0
0 0 0
0 0 0
0 0 0
0 0 0
0 0 0
0 0 0
0 0 0
0 0 0
0 0 0
0 0 0
0 0 0
0 0 0
0 0 0
0 0 0
0 0 0
0 0 0
0 0 0
0 0 0
0 0 0
0 0 0
0 0 0
0 0 0
0 0 0
0 0 0
0 0 0
0 0 0
0 0 0
0 0 0
0 0 0
0 0 0
0 0 0
0 0 0
0 0 0
0 0 0
0 0 0
0 0 0
0 0 0
0 0 0
0 0 0
0 0 0
0 0 0
0 0 0
0 0 0
0 0 0
0 0 0
0 0 0
0 0 0
0 0 0
0 0 0
0 0 0
0 0 0
0 0 0
0 0 0
0 0 0
0 0 0
0 0 0
0 0 0
0 0 0
0 0 0
0 0 0
0 0 0
0 0 0
0 0 0
0 0 0
0 0 0
0 0 0
0 0 0
0 0 0
0 0 0
0 0 0
0 0 0
0 0 0
0 0 0
0 0 0
0 0 0
0 0 0
0 0 0
0 0 0
0 0 0
0 0 0
0 0 0
0 0 0
0 0 0
0 0 0
0 0 0
0 0 0
0 0 0
0 0 0
0 0 0
0 0 0
0 0 0
0 0 0
0 0 0
0 0 0
0 0 0
0 0 0
0 0 0
0 0 0
0 0 0
0 0 0
0 0 0
0 0 0
0 0 0
0 0 0
0 0 0
0 0 0
0 0 0
0 0 0
0 0 0
0 0 0
0 0 0
0 0 0
0 0 0
0 0 0
0 0 0
0 0 0
0 0 0
0 0 0
0 0 0
0 0 0
0 0 0
0 0 0
0 0 0
0 0 0
0 0 0
0 0 0
0 0 0
0 0 0
0 0 0
0 0 0
0 0 0
0 0 0
0 0 0
0 0 0
0 0 0
0 0 0
0 0 0
0 0 0
0 0 0
0 0 0
0 0 0
0 0 0
0 0 0
0 0 0
0 0 0
0 0 0
0 0 0
0 0 0
0 0 0
0 0 0
0 0 0
0 0 0
0 0 0
0 0 0
0 0 0
0 0 0
0 0 0
0 0 0
0 0 0
0 0 0
0 0 0
0 0 0
0 0 0
0 0 0
0 0 0
0 0 0
0 0 0
0 0 0
0 0 0
0 0 0
0 0 0
0 0 0
0 0 0
0 0 0
0 0 0
0 0 0
0 0 0
0 0 0
0 0 0
0 0 0
0 0 0
0 0 0
0 0 0
0 0 0
0 0 0
0 0 0
0 0 0
0 0 0
0 0 0
0 0 0
0 0 0
0 0 0
0 0 0
0 0 0
0 0 0
0 0 0
0 0 0
0 0 0
0 0 0
0 0 0
0 0 0
0 0 0
0 0 0
0 0 0
0 0 0
0 0 0
0 0 0
0 0 0
0 0 0
0 0 0
0 0 0
0 0 0
0 0 0
0 0 0
0 0 0
0 0 0
0 0 0
0 0 0
0 0 0
0 0 0
0 0 0
0 0 0
0 0 0
0 0 0
0 0 0
0 0 0
0 0 0
0 0 0
0 0 0
0 0 0
0 0 0
0 0 0
0 0 0
0 0 0
0 0 0
0 0 0
0 0 0
0 0 0
0 0 0
0 0 0
0 0 0
0 0 0
0 0 0
0 0 0
0 0 0
0 0 0
0 0 0
0 0 0
0 0 0
0 0 0
0 0 0
0 0 0
0 0 0
0 0 0
0 0 0
0 0 0
0 0 0
0 0 0
0 0 0
0 0 0
0 0 0
0 0 0
0 0 0
0 0 0
0 0 0
0 0 0
0 0 0
0 0 0
0 0 0
0 0 0
0 0 0
0 0 0
0 0 0
0 0 0
0 0 0
0 0 0
0 0 0
0 0 0
0 0 0
0 0 0
0 0 0
0 0 0
0 0 0
0 0 0
0 0 0
0 0 0
0 0 0
0 0 0
0 0 0
0 0 0
0 0 0
0 0 0
0 0 0
0 0 0
0 0 0
0 0 0
0 0 0
0 0 0
0 0 0
0 0 0
0 0 0
0 0 0
0 0 0
0 0 0
0 0 0
0 0 0
0 0 0
0 0 0
0 0 0
0 0 0
0 0 0
0 0 0
0 0 0
0 0 0
0 0 0
0 0 0
0 0 0
0 0 0
0 0 0
0 0 0
0 0 0
0 0 0
0 0 0
0 0 0
0 0 0
0 0 0
0 0 0
0 0 0
0 0 0
0 0 0
0 0 0
0 0 0
0 0 0
0 0 0
0 0 0
0 0 0
0 0 0
0 0 0
0 0 0
0 0 0
0 0 0
0 0 0
0 0 0
0 0 0
0 0 0
0 0 0
0 0 0
0 0 0
0 0 0
0 0 0
0 0 0
0 0 0
0 0 0
0 0 0
0 0 0
0 0 0
0 0 0
0 0 0
0 0 0
0 0 0
0 0 0
0 0 0
0 0 0
0 0 0
0 0 0
0 0 0
0 0 0
0 0 0
0 0 0
0 0 0
0 0 0
0 0 0
0 0 0
0 0 0
0 0 0
0 0 0
0 0 0
0 0 0
0 0 0
0 0 0
0 0 0
0 0 0
0 0 0
0 0 0
0 0 0
0 0 0
0 0 0
0 0 0
0 0 0
0 0 0
0 0 0
0 0 0
0 0 0
0 0 0
0 0 0
0 0 0
0 0 0
0 0 0
0 0 0
0 0 0
0 0 0
0 0 0
0 0 0
0 0 0
0 0 0
0 0 0
0 0 0
0 0 0
0 0 0
0 0 0
0 0 0
0 0 0
0 0 0
0 0 0
0 0 0
0 0 0
0 0 0
0 0 0
0 0 0
0 0 0
0 0 0
0 0 0
0 0 0
0 0 0
0 0 0
0 0 0
0 0 0
0 0 0
0 0 0
0 0 0
0 0 0
0 0 0
0 0 0
0 0 0
0 0 0
0 0 0
0 0 0
0 0 0
0 0 0
0 0 0
0 0 0
0 0 0
0 0 0
0 0 0
0 0 0
0 0 0
0 0 0
0 0 0
0 0 0
0 0 0
0 0 0
0 0 0
0 0 0
0 0 0
0 0 0
0 0 0
0 0 0
0 0 0
0 0 0
0 0 0
0 0 0
0 0 0
0 0 0
0 0 0
0 0 0
0 0 0
0 0 0
0 0 0
0 0 0
0 0 0
0 0 0
0 0 0
0 0 0
0 0 0
0 0 0
0 0 0
0 0 0
0 0 0
0 0 0
0 0 0
0 0 0
0 0 0
0 0 0
0 0 0
0 0 0
0 0 0
0 0 0
0 0 0
0 0 0
0 0 0
0 0 0
0 0 0
0 0 0
0 0 0
0 0 0
0 0 0
0 0 0
0 0 0
0 0 0
0 0 0
0 0 0
0 0 0
0 0 0
0 0 0
0 0 0
0 0 0
0 0 0
0 0 0
0 0 0
0 0 0
0 0 0
0 0 0
0 0 0
0 0 0
0 0 0
0 0 0
0 0 0
0 0 0
0 0 0
0 0 0
0 0 0
0 0 0
0 0 0
0 0 0
0 0 0
0 0 0
0 0 0
0 0 0
0 0 0
0 0 0
0 0 0
0 0 0
0 0 0
0 0 0
0 0 0
0 0 0
0 0 0
0 0 0
0 0 0
0 0 0
0 0 0
0 0 0
0 0 0
0 0 0
0 0 0
0 0 0
0 0 0
0 0 0
0 0 0
0 0 0
0 0 0
0 0 0
0 0 0
0 0 0
0 0 0
0 0 0
0 0 0
0 0 0
0 0 0
0 0 0
0 0 0
0 0 0
0 0 0
0 0 0
0 0 0
0 0 0
0 0 0
0 0 0
0 0 0
0 0 0
0 0 0
0 0 0
0 0 0
0 0 0
0 0 0
0 0 0
0 0 0
0 0 0
0 0 0
0 0 0
0 0 0
0 0 0
0 0 0
0 0 0
0 0 0
0 0 0
0 0 0
0 0 0
0 0 0
0 0 0
0 0 0
0 0 0
0 0 0
0 0 0
0 0 0
0 0 0
0 0 0
0 0 0
0 0 0
0 0 0
0 0 0
0 0 0
0 0 0
0 0 0
0 0 0
0 0 0
0 0 0
0 0 0
0 0 0
0 0 0
0 0 0
0 0 0
0 0 0
0 0 0
0 0 0
0 0 0
0 0 0
0 0 0
0 0 0
0 0 0
0 0 0
0 0 0
0 0 0
0 0 0
0 0 0
0 0 0
0 0 0
0 0 0
0 0 0
0 0 0
0 0 0
0 0 0
0 0 0
0 0 0
0 0 0
0 0 0
0 0 0
0 0 0
0 0 0
0 0 0
0 0 0
0 0 0
0 0 0
0 0 0
0 0 0
0 0 0
0 0 0
0 0 0
0 0 0
0 0 0
0 0 0
0 0 0
0 0 0
0 0 0
0 0 0
0 0 0
0 0 0
0 0 0
0 0 0
0 0 0
0 0 0
0 0 0
0 0 0
0 0 0
0 0 0
0 0 0
0 0 0
0 0 0
0 0 0
0 0 0
0 0 0
0 0 0
0 0 0
0 0 0
0 0 0
0 0 0
0 0 0
0 0 0
0 0 0
0 0 0
0 0 0
0 0 0
0 0 0
0 0 0
0 0 0
0 0 0
0 0 0
0 0 0
0 0 0
0 0 0
0 0 0
0 0 0
0 0 0
0 0 0
0 0 0
0 0 0
0 0 0
0 0 0
0 0 0
0 0 0
0 0 0
0 0 0
0 0 0
0 0 0
0 0 0
0 0 0
0 0 0
0 0 0
0 0 0
0 0 0
0 0 0
0 0 0
0 0 0
0 0 0
0 0 0
0 0 0
0 0 0
0 0 0
0 0 0
0 0 0
0 0 0
0 0 0
0 0 0
0 0 0
0 0 0
0 0 0
0 0 0
0 0 0
0 0 0
0 0 0
0 0 0
0 0 0
0 0 0
0 0 0
0 0 0
0 0 0
0 0 0
0 0 0
0 0 0
0 0 0
0 0 0
0 0 0
0 0 0
0 0 0
0 0 0
0 0 0
0 0 0
0 0 0
0 0 0
0 0 0
0 0 0
0 0 0
0 0 0
0 0 0
0 0 0
0 0 0
0 0 0
0 0 0
0 0 0
0 0 0
0 0 0
0 0 0
0 0 0
0 0 0
0 0 0
0 0 0
0 0 0
0 0 0
0 0 0
0 0 0
0 0 0
0 0 0
0 0 0
0 0 0
0 0 0
0 0 0
0 0 0
0 0 0
0 0 0
0 0 0
0 0 0
0 0 0
0 0 0
0 0 0
0 0 0
0 0 0
0 0 0
0 0 0
0 0 0
0 0 0
0 0 0
0 0 0
0 0 0
0 0 0
0 0 0
0 0 0
0 0 0
0 0 0
0 0 0
0 0 0
0 0 0
0 0 0
0 0 0
0 0 0
0 0 0
0 0 0
0 0 0
0 0 0
0 0 0
0 0 0
0 0 0
0 0 0
0 0 0
0 0 0
0 0 0
0 0 0
0 0 0
0 0 0
0 0 0
0 0 0
0 0 0
0 0 0
0 0 0
0 0 0
0 0 0
0 0 0
0 0 0
0 0 0
0 0 0
0 0 0
0 0 0
0 0 0
0 0 0
0 0 0
0 0 0
0 0 0
0 0 0
0 0 0
0 0 0
0 0 0
0 0 0
0 0 0
0 0 0
0 0 0
0 0 0
0 0 0
0 0 0
0 0 0
0 0 0
0 0 0
0 0 0
0 0 0
0 0 0
0 0 0
0 0 0
0 0 0
0 0 0
0 0 0
0 0 0
0 0 0
0 0 0
0 0 0
0 0 0
0 0 0
0 0 0
0 0 0
0 0 0
0 0 0
0 0 0
0 0 0
0 0 0
0 0 0
0 0 0
0 0 0
0 0 0
0 0 0
0 0 0
0 0 0
0 0 0
0 0 0
0 0 0
0 0 0
0 0 0
0 0 0
0 0 0
0 0 0
0 0 0
0 0 0
0 0 0
0 0 0
0 0 0
0 0 0
0 0 0
0 0 0
0 0 0
0 0 0
0 0 0
0 0 0
0 0 0
0 0 0
0 0 0
0 0 0
0 0 0
0 0 0
0 0 0
0 0 0
0 0 0
0 0 0
0 0 0
0 0 0
0 0 0
0 0 0
0 0 0
0 0 0
0 0 0
0 0 0
0 0 0
0 0 0
0 0 0
0 0 0
0 0 0
0 0 0
0 0 0
0 0 0
0 0 0
0 0 0
0 0 0
0 0 0
0 0 0
0 0 0
0 0 0
0 0 0
0 0 0
0 0 0
0 0 0
0 0 0
0 0 0
0 0 0
0 0 0
0 0 0
0 0 0
0 0 0
0 0 0
0 0 0
0 0 0
0 0 0
0 0 0
0 0 0
0 0 0
0 0 0
0 0 0
0 0 0
0 0 0
0 0 0
0 0 0
0 0 0
0 0 0
0 0 0
0 0 0
0 0 0
0 0 0
0 0 0
0 0 0
0 0 0
0 0 0
0 0 0
0 0 0
0 0 0
0 0 0
0 0 0
0 0 0
0 0 0
0 0 0
0 0 0
0 0 0
0 0 0
0 0 0
0 0 0
0 0 0
0 0 0
0 0 0
0 0 0
0 0 0
0 0 0
0 0 0
0 0 0
0 0 0
0 0 0
0 0 0
0 0 0
0 0 0
0 0 0
0 0 0
0 0 0
0 0 0
0 0 0
0 0 0
0 0 0
0 0 0
0 0 0
0 0 0
0 0 0
0 0 0
0 0 0
0 0 0
0 0 0
0 0 0
0 0 0
0 0 0
0 0 0
0 0 0
0 0 0
0 0 0
0 0 0
0 0 0
0 0 0
0 0 0
0 0 0
0 0 0
0 0 0
0 0 0
0 0 0
0 0 0
0 0 0
0 0 0
0 0 0
0 0 0
0 0 0
0 0 0
0 0 0
0 0 0
0 0 0
0 0 0
0 0 0
0 0 0
0 0 0
0 0 0
0 0 0
0 0 0
0 0 0
0 0 0
0 0 0
0 0 0
0 0 0
0 0 0
0 0 0
0 0 0
0 0 0
0 0 0
0 0 0
0 0 0
0 0 0
0 0 0
0 0 0
0 0 0
0 0 0
0 0 0
0 0 0
0 0 0
0 0 0
0 0 0
0 0 0
0 0 0
0 0 0
0 0 0
0 0 0
0 0 0
0 0 0
0 0 0
0 0 0
0 0 0
0 0 0
0 0 0
0 0 0
0 0 0
0 0 0
0 0 0
0 0 0
0 0 0
0 0 0
0 0 0
0 0 0
0 0 0
0 0 0
0 0 0
0 0 0
0 0 0
0 0 0
0 0 0
0 0 0
0 0 0
0 0 0
0 0 0
0 0 0
0 0 0
0 0 0
0 0 0
0 0 0
0 0 0
0 0 0
0 0 0
0 0 0
0 0 0
0 0 0
0 0 0
0 0 0
0 0 0
0 0 0
0 0 0
0 0 0
0 0 0
0 0 0
0 0 0
0 0 0
0 0 0
0 0 0
0 0 0
0 0 0
0 0 0
0 0 0
0 0 0
0 0 0
0 0 0
0 0 0
0 0 0
0 0 0
0 0 0
0 0 0
0 0 0
0 0 0
0 0 0
0 0 0
0 0 0
0 0 0
0 0 0
0 0 0
0 0 0
0 0 0
0 0 0
0 0 0
0 0 0
0 0 0
0 0 0
0 0 0
0 0 0
0 0 0
0 0 0
0 0 0
0 0 0
0 0 0
0 0 0
0 0 0
0 0 0
0 0 0
0 0 0
0 0 0
0 0 0
0 0 0
0 0 0
0 0 0
0 0 0
0 0 0
0 0 0
0 0 0
0 0 0
0 0 0
0 0 0
0 0 0
0 0 0
0 0 0
0 0 0
0 0 0
0 0 0
0 0 0
0 0 0
0 0 0
0 0 0
0 0 0
0 0 0
0 0 0
0 0 0
0 0 0
0 0 0
0 0 0
0 0 0
0 0 0
0 0 0
0 0 0
0 0 0
0 0 0
0 0 0
0 0 0
0 0 0
0 0 0
0 0 0
0 0 0
0 0 0
0 0 0
0 0 0
0 0 0
0 0 0
0 0 0
0 0 0
0 0 0
0 0 0
0 0 0
0 0 0
0 0 0
0 0 0
0 0 0
0 0 0
0 0 0
0 0 0
0 0 0
0 0 0
0 0 0
0 0 0
0 0 0
0 0 0
0 0 0
0 0 0
0 0 0
0 0 0
0 0 0
0 0 0
0 0 0
0 0 0
0 0 0
0 0 0
0 0 0
0 0 0
0 0 0
0 0 0
0 0 0
0 0 0
0 0 0
0 0 0
0 0 0
0 0 0
0 0 0
0 0 0
0 0 0
0 0 0
0 0 0
0 0 0
0 0 0
0 0 0
0 0 0
0 0 0
0 0 0
0 0 0
0 0 0
0 0 0
0 0 0
0 0 0
0 0 0
0 0 0
0 0 0
0 0 0
0 0 0
0 0 0
0 0 0
0 0 0
0 0 0
0 0 0
0 0 0
0 0 0
0 0 0
0 0 0
0 0 0
0 0 0
0 0 0
0 0 0
0 0 0
0 0 0
0 0 0
0 0 0
0 0 0
0 0 0
0 0 0
0 0 0
0 0 0
0 0 0
0 0 0
0 0 0
0 0 0
0 0 0
0 0 0
0 0 0
0 0 0
0 0 0
0 0 0
0 0 0
0 0 0
0 0 0
0 0 0
0 0 0
0 0 0
0 0 0
0 0 0
0 0 0
0 0 0
0 0 0
0 0 0
0 0 0
0 0 0
0 0 0
0 0 0
0 0 0
0 0 0
0 0 0
0 0 0
0 0 0
0 0 0
0 0 0
0 0 0
0 0 0
0 0 0
0 0 0
0 0 0
0 0 0
0 0 0
0 0 0
0 0 0
0 0 0
0 0 0
0 0 0
0 0 0
0 0 0
0 0 0
0 0 0
0 0 0
0 0 0
0 0 0
0 0 0
0 0 0
0 0 0
0 0 0
0 0 0
0 0 0
0 0 0
0 0 0
0 0 0
0 0 0
0 0 0
0 0 0
0 0 0
0 0 0
0 0 0
0 0 0
0 0 0
0 0 0
0 0 0
0 0 0
0 0 0
0 0 0
0 0 0
0 0 0
0 0 0
0 0 0
0 0 0
0 0 0
0 0 0
0 0 0
0 0 0
0 0 0
0 0 0
0 0 0
0 0 0
0 0 0
0 0 0
0 0 0
0 0 0
0 0 0
0 0 0
0 0 0
0 0 0
0 0 0
0 0 0
0 0 0
0 0 0
0 0 0
0 0 0
0 0 0
0 0 0
0 0 0
0 0 0
0 0 0
0 0 0
0 0 0
0 0 0
0 0 0
0 0 0
0 0 0
0 0 0
0 0 0
0 0 0
0 0 0
0 0 0
0 0 0
0 0 0
0 0 0
0 0 0
0 0 0
0 0 0
0 0 0
0 0 0
0 0 0
0 0 0
0 0 0
0 0 0
0 0 0
0 0 0
0 0 0
0 0 0
0 0 0
0 0 0
0 0 0
0 0 0
0 0 0
0 0 0
0 0 0
0 0 0
0 0 0
0 0 0
0 0 0
0 0 0
0 0 0
0 0 0
0 0 0
0 0 0
0 0 0
0 0 0
0 0 0
0 0 0
0 0 0
0 0 0
0 0 0
0 0 0
0 0 0
0 0 0
0 0 0
0 0 0
0 0 0
0 0 0
0 0 0
0 0 0
0 0 0
0 0 0
0 0 0
0 0 0
0 0 0
0 0 0
0 0 0
0 0 0
0 0 0
0 0 0
0 0 0
0 0 0
0 0 0
0 0 0
0 0 0
0 0 0
0 0 0
0 0 0
0 0 0
0 0 0
0 0 0
0 0 0
0 0 0
0 0 0
0 0 0
0 0 0
0 0 0
0 0 0
0 0 0
0 0 0
0 0 0
0 0 0
0 0 0
0 0 0
0 0 0
0 0 0
0 0 0
0 0 0
0 0 0
0 0 0
0 0 0
0 0 0
0 0 0
0 0 0
0 0 0
0 0 0
0 0 0
0 0 0
0 0 0
0 0 0
0 0 0
0 0 0
0 0 0
0 0 0
0 0 0
0 0 0
0 0 0
0 0 0
0 0 0
0 0 0
0 0 0
0 0 0
0 0 0
0 0 0
0 0 0
0 0 0
0 0 0
0 0 0
0 0 0
0 0 0
0 0 0
0 0 0
0 0 0
0 0 0
0 0 0
0 0 0
0 0 0
0 0 0
0 0 0
0 0 0
0 0 0
0 0 0
0 0 0
0 0 0
0 0 0
0 0 0
0 0 0
0 0 0
0 0 0
0 0 0
0 0 0
0 0 0
0 0 0
0 0 0
0 0 0
0 0 0
0 0 0
0 0 0
0 0 0
0 0 0
0 0 0
0 0 0
0 0 0
0 0 0
0 0 0
0 0 0
0 0 0
0 0 0
0 0 0
0 0 0
0 0 0
0 0 0
0 0 0
0 0 0
0 0 0
0 0 0
0 0 0
0 0 0
0 0 0
0 0 0
0 0 0
0 0 0
0 0 0
0 0 0
0 0 0
0 0 0
0 0 0
0 0 0
0 0 0
0 0 0
0 0 0
0 0 0
0 0 0
0 0 0
0 0 0
0 0 0
0 0 0
0 0 0
0 0 0
0 0 0
0 0 0
0 0 0
0 0 0
0 0 0
0 0 0
0 0 0
0 0 0
0 0 0
0 0 0
0 0 0
0 0 0
0 0 0
0 0 0
0 0 0
0 0 0
0 0 0
0 0 0
0 0 0
0 0 0
0 0 0
0 0 0
0 0 0
0 0 0
0 0 0
0 0 0
0 0 0
0 0 0
0 0 0
0 0 0
0 0 0
0 0 0
0 0 0
0 0 0
0 0 0
0 0 0
0 0 0
0 0 0
0 0 0
0 0 0
0 0 0
0 0 0
0 0 0
0 0 0
0 0 0
0 0 0
0 0 0
0 0 0
0 0 0
0 0 0
0 0 0
0 0 0
0 0 0
0 0 0
0 0 0
0 0 0
0 0 0
0 0 0
0 0 0
0 0 0
0 0 0
0 0 0
0 0 0
0 0 0
0 0 0
0 0 0
0 0 0
0 0 0
0 0 0
0 0 0
0 0 0
0 0 0
0 0 0
0 0 0
0 0 0
0 0 0
0 0 0
0 0 0
0 0 0
0 0 0
0 0 0
0 0 0
0 0 0
0 0 0
0 0 0
0 0 0
0 0 0
0 0 0
0 0 0
0 0 0
0 0 0
0 0 0
0 0 0
0 0 0
0 0 0
0 0 0
0 0 0
0 0 0
0 0 0
0 0 0
0 0 0
0 0 0
0 0 0
0 0 0
0 0 0
0 0 0
0 0 0
0 0 0
0 0 0
0 0 0
0 0 0
0 0 0
0 0 0
0 0 0
0 0 0
0 0 0
0 0 0
0 0 0
0 0 0
0 0 0
0 0 0
0 0 0
0 0 0
0 0 0
0 0 0
0 0 0
0 0 0
0 0 0
0 0 0
0 0 0
0 0 0
0 0 0
0 0 0
0 0 0
0 0 0
0 0 0
0 0 0
0 0 0
0 0 0
0 0 0
0 0 0
0 0 0
0 0 0
0 0 0
0 0 0
0 0 0
0 0 0
0 0 0
0 0 0
0 0 0
0 0 0
0 0 0
0 0 0
0 0 0
0 0 0
0 0 0
0 0 0
0 0 0
0 0 0
0 0 0
0 0 0
0 0 0
0 0 0
0 0 0
0 0 0
0 0 0
0 0 0
0 0 0
0 0 0
0 0 0
0 0 0
0 0 0
0 0 0
0 0 0
0 0 0
0 0 0
0 0 0
0 0 0
0 0 0
0 0 0
0 0 0
0 0 0
0 0 0
0 0 0
0 0 0
0 0 0
0 0 0
0 0 0
0 0 0
0 0 0
0 0 0
0 0 0
0 0 0
0 0 0
0 0 0
0 0 0
0 0 0
0 0 0
0 0 0
0 0 0
0 0 0
0 0 0
0 0 0
0 0 0
0 0 0
0 0 0
0 0 0
0 0 0
0 0 0
0 0 0
0 0 0
0 0 0
0 0 0
0 0 0
0 0 0
0 0 0
0 0 0
0 0 0
0 0 0
0 0 0
0 0 0
0 0 0
0 0 0
0 0 0
0 0 0
0 0 0
0 0 0
0 0 0
0 0 0
0 0 0
0 0 0
0 0 0
0 0 0
0 0 0
0 0 0
0 0 0
0 0 0
0 0 0
0 0 0
0 0 0
0 0 0
0 0 0
0 0 0
0 0 0
0 0 0
0 0 0
0 0 0
0 0 0
0 0 0
0 0 0
0 0 0
0 0 0
0 0 0
0 0 0
0 0 0
0 0 0
0 0 0
0 0 0
0 0 0
0 0 0
0 0 0
0 0 0
0 0 0
0 0 0
0 0 0
0 0 0
0 0 0
0 0 0
0 0 0
0 0 0
0 0 0
0 0 0
0 0 0
0 0 0
0 0 0
0 0 0
0 0 0
0 0 0
0 0 0
0 0 0
0 0 0
0 0 0
0 0 0
0 0 0
0 0 0
0 0 0
0 0 0
0 0 0
0 0 0
0 0 0
0 0 0
0 0 0
0 0 0
0 0 0
0 0 0
0 0 0
0 0 0
0 0 0
0 0 0
0 0 0
0 0 0
0 0 0
0 0 0
0 0 0
0 0 0
0 0 0
0 0 0
0 0 0
0 0 0
0 0 0
0 0 0
0 0 0
0 0 0
0 0 0
0 0 0
0 0 0
0 0 0
0 0 0
0 0 0
0 0 0
0 0 0
0 0 0
0 0 0
0 0 0
0 0 0
0 0 0
0 0 0
0 0 0
0 0 0
0 0 0
0 0 0
0 0 0
0 0 0
0 0 0
0 0 0
0 0 0
0 0 0
0 0 0
0 0 0
0 0 0
0 0 0
0 0 0
0 0 0
0 0 0
0 0 0
0 0 0
0 0 0
0 0 0
0 0 0
0 0 0
0 0 0
0 0 0
0 0 0
0 0 0
0 0 0
0 0 0
0 0 0
0 0 0
0 0 0
0 0 0
10 10 10
0 0 0
0 0 0
0 0 0
0 0 0
0 0 0
0 0 0
0 0 0
0 0 0
0 0 0
0 0 0
0 0 0
0 0 0
10 10 10
0 0 0
0 0 0
0 0 0
0 0 0
0 0 0
0 0 0
0 0 0
0 0 0
0 0 0
10 10 10
10 10 10
10 10 10
10 10 10
10 10 10
10 10 10
10 10 10
9 9 9
0 0 0
0 0 0
0 0 0
0 0 0
0 0 0
9 9 9
9 9 9
10 10 10
9 9 9
9 9 9
9 9 9
9 9 9
9 9 9
9 9 9
0 0 0
0 0 0
0 0 0
0 0 0
0 0 0
0 0 0
0 0 0
0 0 0
0 0 0
0 0 0
0 0 0
0 0 0
0 0 0
0 0 0
0 0 0
8 8 8
8 8 8
0 0 0
0 0 0
0 0 0
0 0 0
0 0 0
0 0 0
0 0 0
0 0 0
0 0 0
8 8 8
9 9 9
9 9 9
19 19 19
18 18 18
17 17 17
0 0 0
0 0 0
0 0 0
0 0 0
0 0 0
0 0 0
0 0 0
0 0 0
0 0 0
9 9 9
10 10 10
0 0 0
0 0 0
0 0 0
0 0 0
0 0 0
0 0 0
0 0 0
0 0 0
0 0 0
10 10 10
11 11 11
11 11 11
11 11 11
11 11 11
11 11 11
10 10 10
0 0 0
0 0 0
0 0 0
0 0 0
0 0 0
0 0 0
10 10 10
11 11 11
26 26 26
29 29 29
22 22 22
17 17 17
8 8 8
16 16 16
0 0 0
0 0 0
0 0 0
11 11 11
14 14 14
10 10 10
10 10 10
10 10 10
10 10 10
10 10 10
10 10 10
10 10 10
10 10 10
10 10 10
10 10 10
0 0 0
2 2 2
4 4 4
13 13 13
3 3 3
2 2 2
2 2 2
2 2 2
2 2 2
2 2 2
2 2 2
2 2 2
2 2 2
2 2 2
2 2 2
2 2 2
0 0 0
0 0 0
0 0 0
0 0 0
0 0 0
0 0 0
0 0 0
0 0 0
0 0 0
0 0 0
19 19 19
9 9 9
9 9 9
9 9 9
0 0 0
0 0 0
0 0 0
0 0 0
0 0 0
0 0 0
0 0 0
8 8 8
9 9 9
9 9 9
21 21 21
21 21 21
19 19 19
18 18 18
17 17 17
15 15 15
0 0 0
0 0 0
0 0 0
0 0 0
0 0 0
0 0 0
10 10 10
9 9 9
10 10 10
10 10 10
0 0 0
0 0 0
0 0 0
0 0 0
0 0 0
0 0 0
0 0 0
10 10 10
10 10 10
11 11 11
11 11 11
11 11 11
11 11 11
11 11 11
10 10 10
10 10 10
0 0 0
0 0 0
0 0 0
0 0 0
10 10 10
27 27 27
46 46 46
31 31 31
26 26 26
23 23 23
20 20 20
17 17 17
12 12 12
6 6 6
0 0 0
0 0 0
18 18 18
20 20 20
7 7 7
10 10 10
10 10 10
10 10 10
10 10 10
10 10 10
10 10 10
10 10 10
10 10 10
8 8 8
0 0 0
0 0 0
2 2 2
13 13 13
3 3 3
3 3 3
3 3 3
3 3 3
2 2 2
2 2 2
2 2 2
2 2 2
2 2 2
2 2 2
2 2 2
2 2 2
0 0 0
0 0 0
0 0 0
0 0 0
0 0 0
0 0 0
0 0 0
0 0 0
0 0 0
8 8 8
8 8 8
9 9 9
9 9 9
9 9 9
9 9 9
0 0 0
0 0 0
0 0 0
1 1 1
1 1 1
7 7 7
8 8 8
9 9 9
10 10 10
23 23 23
22 22 22
20 20 20
18 18 18
17 17 17
15 15 15
1 1 1
1 1 1
1 1 1
1 1 1
1 1 1
33 33 33
10 10 10
21 21 21
11 11 11
11 11 11
11 11 11
1 1 1
1 1 1
1 1 1
1 1 1
1 1 1
9 9 9
10 10 10
10 10 10
10 10 10
11 11 11
11 11 11
11 11 11
10 10 10
10 10 10
10 10 10
9 9 9
1 1 1
1 1 1
10 10 10
9 9 9
51 51 51
37 37 37
33 33 33
30 30 30
26 26 26
23 23 23
20 20 20
17 17 17
11 11 11
8 8 8
1 1 1
21 21 21
24 24 24
26 26 26
16 16 16
9 9 9
9 9 9
9 9 9
9 9 9
9 9 9
9 9 9
9 9 9
4 4 4
2 2 2
2 2 2
4 4 4
9 9 9
6 6 6
5 5 5
5 5 5
5 5 5
5 5 5
5 5 5
5 5 5
5 5 5
5 5 5
5 5 5
4 4 4
4 4 4
0 0 0
1 1 1
1 1 1
1 1 1
1 1 1
1 1 1
1 1 1
1 1 1
8 8 8
9 9 9
10 10 10
10 10 10
10 10 10
10 10 10
10 10 10
10 10 10
2 2 2
2 2 2
2 2 2
22 22 22
16 16 16
8 8 8
9 9 9
26 26 26
25 25 25
23 23 23
20 20 20
18 18 18
16 16 16
14 14 14
22 22 22
2 2 2
2 2 2
2 2 2
10 10 10
29 29 29
24 24 24
28 28 28
11 11 11
11 11 11
11 11 11
11 11 11
2 2 2
2 2 2
2 2 2
2 2 2
9 9 9
9 9 9
10 10 10
10 10 10
13 13 13
24 24 24
13 13 13
10 10 10
10 10 10
9 9 9
19 19 19
2 2 2
2 2 2
10 10 10
78 78 78
48 48 48
45 45 45
41 41 41
37 37 37
34 34 34
31 31 31
28 28 28
25 25 25
22 22 22
7 7 7
2 2 2
19 19 19
23 23 23
26 26 26
17 17 17
30 30 30
9 9 9
9 9 9
9 9 9
9 9 9
9 9 9
5 5 5
5 5 5
4 4 4
4 4 4
6 6 6
11 11 11
11 11 11
10 10 10
10 10 10
10 10 10
10 10 10
9 9 9
9 9 9
9 9 9
9 9 9
9 9 9
8 8 8
7 7 7
1 1 1
3 3 3
3 3 3
3 3 3
3 3 3
3 3 3
3 3 3
9 9 9
9 9 9
9 9 9
10 10 10
10 10 10
10 10 10
10 10 10
10 10 10
10 10 10
10 10 10
3 3 3
4 4 4
23 23 23
24 24 24
17 17 17
9 9 9
29 29 29
26 26 26
21 21 21
19 19 19
16 16 16
13 13 13
22 22 22
21 21 21
4 4 4
4 4 4
10 10 10
11 11 11
27 27 27
21 21 21
69 69 69
34 34 34
11 11 11
12 12 12
12 12 12
12 12 12
4 4 4
4 4 4
4 4 4
28 28 28
16 16 16
15 15 15
15 15 15
31 31 31
94 94 94
31 31 31
15 15 15
15 15 15
26 26 26
25 25 25
4 4 4
17 17 17
18 18 18
64 64 64
65 65 65
61 61 61
57 57 57
53 53 53
50 50 50
46 46 46
43 43 43
40 40 40
38 38 38
28 28 28
9 9 9
17 17 17
22 22 22
25 25 25
26 26 26
45 45 45
85 85 85
8 8 8
8 8 8
8 8 8
12 12 12
10 10 10
7 7 7
7 7 7
7 7 7
9 9 9
17 17 17
20 20 20
18 18 18
17 17 17
17 17 17
17 17 17
16 16 16
16 16 16
15 15 15
15 15 15
15 15 15
14 14 14
12 12 12
3 3 3
5 5 5
5 5 5
5 5 5
5 5 5
5 5 5
9 9 9
9 9 9
9 9 9
11 11 11
23 23 23
11 11 11
11 11 11
11 11 11
11 11 11
11 11 11
11 11 11
11 11 11
6 6 6
14 14 14
51 51 51
20 20 20
28 28 28
12 12 12
23 23 23
14 14 14
11 11 11
20 20 20
23 23 23
15 15 15
18 18 18
7 7 7
11 11 11
29 29 29
11 11 11
24 24 24
17 17 17
61 61 61
80 80 80
40 40 40
12 12 12
12 12 12
12 12 12
12 12 12
8 8 8
13 13 13
21 21 21
10 10 10
10 10 10
11 11 11
28 28 28
85 85 85
28 28 28
11 11 11
10 10 10
16 16 16
25 25 25
13 13 13
11 11 11
9 9 9
114 114 114
104 104 104
97 97 97
90 90 90
84 84 84
79 79 79
73 73 73
69 69 69
64 64 64
60 60 60
54 54 54
13 13 13
13 13 13
17 17 17
18 18 18
42 42 42
67 67 67
143 143 143
104 104 104
10 10 10
27 27 27
20 20 20
15 15 15
10 10 10
12 12 12
12 12 12
13 13 13
33 33 33
30 30 30
28 28 28
27 27 27
26 26 26
25 25 25
25 25 25
24 24 24
23 23 23
23 23 23
22 22 22
21 21 21
17 17 17
5 5 5
7 7 7
7 7 7
8 8 8
8 8 8
8 8 8
8 8 8
10 10 10
10 10 10
51 51 51
50 50 50
50 50 50
50 50 50
50 50 50
50 50 50
44 44 44
44 44 44
9 9 9
9 9 9
10 10 10
43 43 43
42 42 42
46 46 46
52 52 52
63 63 63
68 68 68
72 72 72
74 74 74
75 75 75
15 15 15
57 57 57
11 11 11
11 11 11
42 42 42
61 61 61
69 69 69
77 77 77
126 126 126
94 94 94
83 83 83
75 75 75
67 67 67
14 14 14
12 12 12
12 12 12
12 12 12
14 14 14
60 60 60
81 81 81
103 103 103
135 135 135
164 164 164
154 154 154
103 103 103
81 81 81
13 13 13
10 10 10
12 12 12
7 7 7
92 92 92
136 136 136
121 121 121
114 114 114
108 108 108
102 102 102
96 96 96
91 91 91
86 86 86
82 82 82
77 77 77
72 72 72
49 49 49
7 7 7
10 10 10
11 11 11
67 67 67
93 93 93
215 215 215
116 116 116
69 69 69
38 38 38
28 28 28
22 22 22
12 12 12
16 16 16
16 16 16
17 17 17
63 63 63
41 41 41
37 37 37
36 36 36
35 35 35
34 34 34
33 33 33
32 32 32
32 32 32
31 31 31
30 30 30
29 29 29
23 23 23
7 7 7
10 10 10
5 5 5
6 6 6
6 6 6
6 6 6
6 6 6
6 6 6
10 10 10
11 11 11
43 43 43
43 43 43
43 43 43
43 43 43
43 43 43
43 43 43
13 13 13
14 14 14
14 14 14
14 14 14
34 34 34
38 38 38
43 43 43
49 49 49
56 56 56
60 60 60
60 60 60
61 61 61
62 62 62
63 63 63
63 63 63
7 7 7
7 7 7
17 17 17
46 46 46
58 58 58
66 66 66
89 89 89
80 80 80
74 74 74
67 67 67
58 58 58
18 18 18
18 18 18
18 18 18
7 7 7
14 14 14
68 68 68
79 79 79
89 89 89
95 95 95
99 99 99
95 95 95
89 89 89
79 79 79
71 71 71
11 11 11
7 7 7
18 18 18
67 67 67
159 159 159
127 127 127
120 120 120
115 115 115
109 109 109
105 105 105
100 100 100
96 96 96
92 92 92
88 88 88
84 84 84
45 45 45
6 6 6
13 13 13
14 14 14
104 104 104
141 141 141
193 193 193
63 63 63
61 61 61
61 61 61
37 37 37
26 26 26
17 17 17
23 23 23
23 23 23
14 14 14
117 117 117
50 50 50
47 47 47
45 45 45
44 44 44
43 43 43
42 42 42
41 41 41
40 40 40
39 39 39
38 38 38
37 37 37
30 30 30
5 5 5
14 14 14
15 15 15
15 15 15
7 7 7
7 7 7
7 7 7
7 7 7
7 7 7
11 11 11
11 11 11
42 42 42
42 42 42
42 42 42
41 41 41
8 8 8
8 8 8
8 8 8
8 8 8
8 8 8
38 38 38
41 41 41
45 45 45
48 48 48
53 53 53
55 55 55
55 55 55
56 56 56
57 57 57
58 58 58
8 8 8
8 8 8
8 8 8
8 8 8
8 8 8
50 50 50
60 60 60
68 68 68
72 72 72
67 67 67
59 59 59
25 25 25
26 26 26
26 26 26
9 9 9
9 9 9
50 50 50
66 66 66
74 74 74
80 80 80
83 83 83
85 85 85
83 83 83
80 80 80
74 74 74
66 66 66
50 50 50
9 9 9
9 9 9
9 9 9
158 158 158
156 156 156
145 145 145
138 138 138
130 130 130
116 116 116
112 112 112
107 107 107
102 102 102
98 98 98
89 89 89
8 8 8
18 18 18
10 10 10
11 11 11
132 132 132
120 120 120
60 60 60
58 58 58
57 57 57
56 56 56
54 54 54
37 37 37
15 15 15
16 16 16
15 15 15
17 17 17
148 148 148
53 53 53
50 50 50
48 48 48
47 47 47
46 46 46
45 45 45
43 43 43
42 42 42
41 41 41
40 40 40
39 39 39
31 31 31
7 7 7
8 8 8
8 8 8
8 8 8
8 8 8
8 8 8
8 8 8
21 21 21
21 21 21
9 9 9
11 11 11
40 40 40
40 40 40
40 40 40
9 9 9
9 9 9
9 9 9
9 9 9
9 9 9
9 9 9
9 9 9
42 42 42
45 45 45
47 47 47
51 51 51
53 53 53
54 54 54
54 54 54
54 54 54
54 54 54
10 10 10
10 10 10
10 10 10
10 10 10
10 10 10
10 10 10
13 13 13
63 63 63
67 67 67
61 61 61
10 10 10
10 10 10
35 35 35
35 35 35
10 10 10
10 10 10
10 10 10
61 61 61
69 69 69
74 74 74
76 76 76
77 77 77
76 76 76
74 74 74
69 69 69
61 61 61
10 10 10
10 10 10
10 10 10
35 35 35
75 75 75
166 166 166
146 146 146
136 136 136
132 132 132
135 135 135
122 122 122
115 115 115
110 110 110
99 99 99
61 61 61
10 10 10
20 20 20
23 23 23
62 62 62
65 65 65
57 57 57
56 56 56
55 55 55
54 54 54
53 53 53
52 52 52
50 50 50
18 18 18
18 18 18
18 18 18
20 20 20
122 122 122
58 58 58
55 55 55
53 53 53
52 52 52
51 51 51
49 49 49
48 48 48
47 47 47
46 46 46
45 45 45
44 44 44
36 36 36
8 8 8
10 10 10
10 10 10
10 10 10
10 10 10
10 10 10
10 10 10
10 10 10
10 10 10
10 10 10
28 28 28
12 12 12
39 39 39
30 30 30
10 10 10
10 10 10
11 11 11
11 11 11
11 11 11
11 11 11
11 11 11
11 11 11
45 45 45
47 47 47
49 49 49
51 51 51
51 51 51
51 51 51
11 11 11
11 11 11
11 11 11
11 11 11
11 11 11
11 11 11
11 11 11
11 11 11
11 11 11
14 14 14
62 62 62
12 12 12
12 12 12
46 46 46
47 47 47
47 47 47
48 48 48
12 12 12
12 12 12
12 12 12
62 62 62
68 68 68
71 71 71
71 71 71
71 71 71
68 68 68
62 62 62
12 12 12
12 12 12
12 12 12
48 48 48
47 47 47
12 12 12
76 76 76
120 120 120
129 129 129
123 123 123
115 115 115
111 111 111
106 106 106
92 92 92
65 65 65
11 11 11
11 11 11
23 23 23
28 28 28
57 57 57
55 55 55
54 54 54
53 53 53
52 52 52
51 51 51
50 50 50
49 49 49
48 48 48
46 46 46
21 21 21
21 21 21
23 23 23
87 87 87
60 60 60
58 58 58
56 56 56
55 55 55
54 54 54
53 53 53
51 51 51
50 50 50
49 49 49
48 48 48
47 47 47
41 41 41
10 10 10
29 29 29
30 30 30
31 31 31
31 31 31
32 32 32
33 33 33
33 33 33
34 34 34
35 35 35
35 35 35
36 36 36
37 37 37
37 37 37
38 38 38
39 39 39
40 40 40
41 41 41
41 41 41
42 42 42
43 43 43
44 44 44
45 45 45
46 46 46
89 89 89
91 91 91
48 48 48
49 49 49
50 50 50
51 51 51
52 52 52
53 53 53
53 53 53
54 54 54
55 55 55
56 56 56
13 13 13
13 13 13
116 116 116
59 59 59
59 59 59
60 60 60
60 60 60
61 61 61
61 61 61
62 62 62
62 62 62
62 62 62
63 63 63
13 13 13
24 24 24
13 13 13
24 24 24
13 13 13
63 63 63
62 62 62
62 62 62
62 62 62
61 61 61
61 61 61
60 60 60
37 37 37
24 24 24
75 75 75
90 90 90
91 91 91
86 86 86
70 70 70
13 13 13
13 13 13
13 13 13
13 13 13
24 24 24
23 23 23
13 13 13
13 13 13
13 13 13
13 13 13
13 13 13
12 12 12
12 12 12
12 12 12
23 23 23
23 23 23
23 23 23
22 22 22
45 45 45
63 63 63
60 60 60
59 59 59
58 58 58
57 57 57
56 56 56
55 55 55
54 54 54
53 53 53
52 52 52
49 49 49
48 48 48
45 45 45
11 11 11
35 35 35
36 36 36
37 37 37
38 38 38
38 38 38
39 39 39
40 40 40
41 41 41
42 42 42
42 42 42
54 54 54
80 80 80
45 45 45
46 46 46
47 47 47
48 48 48
49 49 49
50 50 50
51 51 51
52 52 52
53 53 53
95 95 95
98 98 98
100 100 100
103 103 103
105 105 105
107 107 107
109 109 109
62 62 62
64 64 64
65 65 65
66 66 66
67 67 67
68 68 68
69 69 69
70 70 70
93 93 93
126 126 126
129 129 129
74 74 74
75 75 75
76 76 76
76 76 76
77 77 77
78 78 78
78 78 78
78 78 78
91 91 91
92 92 92
140 140 140
140 140 140
140 140 140
92 92 92
91 91 91
78 78 78
78 78 78
78 78 78
77 77 77
76 76 76
128 128 128
133 133 133
99 99 99
141 141 141
135 135 135
134 134 134
131 131 131
81 81 81
68 68 68
67 67 67
66 66 66
65 65 65
83 83 83
112 112 112
110 110 110
108 108 108
106 106 106
104 104 104
102 102 102
100 100 100
98 98 98
96 96 96
94 94 94
92 92 92
69 69 69
69 69 69
89 89 89
90 90 90
88 88 88
86 86 86
84 84 84
83 83 83
81 81 81
79 79 79
78 78 78
76 76 76
75 75 75
73 73 73
72 72 72
37 37 37
36 36 36
41 41 41
42 42 42
43 43 43
44 44 44
45 45 45
46 46 46
47 47 47
48 48 48
49 49 49
60 60 60
87 87 87
89 89 89
90 90 90
54 54 54
55 55 55
57 57 57
58 58 58
59 59 59
60 60 60
62 62 62
101 101 101
105 105 105
108 108 108
112 112 112
114 114 114
117 117 117
120 120 120
122 122 122
124 124 124
76 76 76
77 77 77
79 79 79
80 80 80
82 82 82
83 83 83
137 137 137
139 139 139
144 144 144
140 140 140
144 144 144
91 91 91
92 92 92
93 93 93
94 94 94
94 94 94
95 95 95
108 108 108
155 155 155
159 159 159
161 161 161
161 161 161
161 161 161
159 159 159
155 155 155
108 108 108
95 95 95
94 94 94
94 94 94
101 101 101
150 150 150
102 102 102
159 159 159
177 177 177
181 181 181
178 178 178
172 172 172
163 163 163
144 144 144
80 80 80
79 79 79
77 77 77
85 85 85
97 97 97
125 125 125
121 121 121
119 119 119
116 116 116
114 114 114
112 112 112
110 110 110
107 107 107
105 105 105
101 101 101
75 75 75
76 76 76
67 67 67
131 131 131
108 108 108
106 106 106
103 103 103
101 101 101
99 99 99
97 97 97
95 95 95
93 93 93
91 91 91
90 90 90
88 88 88
81 81 81
42 42 42
47 47 47
48 48 48
49 49 49
50 50 50
51 51 51
52 52 52
53 53 53
54 54 54
66 66 66
67 67 67
95 95 95
97 97 97
98 98 98
100 100 100
63 63 63
65 65 65
66 66 66
68 68 68
69 69 69
105 105 105
110 110 110
114 114 114
118 118 118
122 122 122
126 126 126
129 129 129
132 132 132
135 135 135
138 138 138
140 140 140
89 89 89
91 91 91
93 93 93
94 94 94
155 155 155
147 147 147
156 156 156
162 162 162
159 159 159
155 155 155
129 129 129
107 107 107
108 108 108
110 110 110
111 111 111
122 122 122
169 169 169
176 176 176
179 179 179
181 181 181
182 182 182
181 181 181
179 179 179
176 176 176
169 169 169
122 122 122
111 111 111
110 110 110
117 117 117
154 154 154
206 206 206
222 222 222
220 220 220
214 214 214
208 208 208
202 202 202
196 196 196
187 187 187
165 165 165
91 91 91
89 89 89
95 95 95
95 95 95
94 94 94
136 136 136
131 131 131
129 129 129
126 126 126
123 123 123
121 121 121
118 118 118
116 116 116
78 78 78
81 81 81
83 83 83
74 74 74
169 169 169
115 115 115
112 112 112
109 109 109
107 107 107
105 105 105
102 102 102
100 100 100
98 98 98
96 96 96
94 94 94
91 91 91
80 80 80
48 48 48
53 53 53
54 54 54
55 55 55
56 56 56
57 57 57
58 58 58
60 60 60
70 70 70
72 72 72
81 81 81
103 103 103
105 105 105
106 106 106
108 108 108
109 109 109
72 72 72
74 74 74
75 75 75
77 77 77
110 110 110
116 116 116
122 122 122
127 127 127
132 132 132
137 137 137
141 141 141
144 144 144
148 148 148
151 151 151
155 155 155
99 99 99
101 101 101
103 103 103
154 154 154
153 153 153
163 163 163
171 171 171
178 178 178
176 176 176
173 173 173
167 167 167
139 139 139
122 122 122
123 123 123
125 125 125
173 173 173
186 186 186
194 194 194
198 198 198
201 201 201
202 202 202
201 201 201
198 198 198
194 194 194
186 186 186
138 138 138
125 125 125
130 130 130
131 131 131
213 213 213
255 255 255
255 255 255
236 236 236
228 228 228
221 221 221
214 214 214
207 207 207
201 201 201
194 194 194
166 166 166
99 99 99
104 104 104
110 110 110
102 102 102
212 212 212
145 145 145
140 140 140
137 137 137
134 134 134
131 131 131
128 128 128
117 117 117
85 85 85
95 95 95
87 87 87
80 80 80
194 194 194
119 119 119
115 115 115
113 113 113
110 110 110
107 107 107
105 105 105
103 103 103
100 100 100
98 98 98
96 96 96
94 94 94
78 78 78
54 54 54
58 58 58
59 59 59
60 60 60
61 61 61
62 62 62
64 64 64
74 74 74
76 76 76
78 78 78
108 108 108
110 110 110
111 111 111
113 113 113
121 121 121
122 122 122
118 118 118
80 80 80
82 82 82
84 84 84
86 86 86
98 98 98
127 127 127
135 135 135
141 141 141
147 147 147
152 152 152
157 157 157
162 162 162
106 106 106
108 108 108
107 107 107
109 109 109
153 153 153
156 156 156
167 167 167
176 176 176
184 184 184
193 193 193
191 191 191
188 188 188
184 184 184
143 143 143
148 148 148
134 134 134
136 136 136
138 138 138
199 199 199
209 209 209
216 216 216
220 220 220
221 221 221
220 220 220
216 216 216
209 209 209
140 140 140
138 138 138
136 136 136
145 145 145
134 134 134
255 255 255
255 255 255
245 245 245
238 238 238
231 231 231
224 224 224
217 217 217
205 205 205
199 199 199
193 193 193
187 187 187
107 107 107
113 113 113
114 114 114
113 113 113
206 206 206
255 255 255
152 152 152
147 147 147
144 144 144
141 141 141
134 134 134
94 94 94
95 95 95
95 95 95
99 99 99
85 85 85
199 199 199
124 124 124
120 120 120
118 118 118
115 115 115
108 108 108
106 106 106
103 103 103
101 101 101
99 99 99
97 97 97
94 94 94
82 82 82
59 59 59
62 62 62
63 63 63
65 65 65
66 66 66
67 67 67
68 68 68
79 79 79
81 81 81
82 82 82
119 119 119
120 120 120
122 122 122
123 123 123
125 125 125
122 122 122
124 124 124
95 95 95
87 87 87
94 94 94
96 96 96
95 95 95
97 97 97
140 140 140
151 151 151
160 160 160
170 170 170
181 181 181
112 112 112
115 115 115
117 117 117
113 113 113
126 126 126
156 156 156
170 170 170
177 177 177
187 187 187
200 200 200
208 208 208
204 204 204
200 200 200
197 197 197
192 192 192
152 152 152
142 142 142
144 144 144
148 148 148
201 201 201
221 221 221
236 236 236
247 247 247
252 252 252
247 247 247
236 236 236
221 221 221
150 150 150
148 148 148
144 144 144
151 151 151
230 230 230
255 255 255
244 244 244
237 237 237
230 230 230
223 223 223
216 216 216
209 209 209
203 203 203
197 197 197
192 192 192
184 184 184
117 117 117
116 116 116
116 116 116
115 115 115
174 174 174
204 204 204
255 255 255
157 157 157
153 153 153
148 148 148
120 120 120
100 100 100
96 96 96
96 96 96
90 90 90
88 88 88
200 200 200
120 120 120
117 117 117
114 114 114
112 112 112
109 109 109
107 107 107
105 105 105
102 102 102
100 100 100
98 98 98
95 95 95
76 76 76
63 63 63
66 66 66
67 67 67
68 68 68
70 70 70
71 71 71
72 72 72
74 74 74
83 83 83
89 89 89
88 88 88
100 100 100
91 91 91
92 92 92
94 94 94
95 95 95
97 97 97
89 89 89
90 90 90
92 92 92
107 107 107
109 109 109
111 111 111
152 152 152
111 111 111
115 115 115
117 117 117
119 119 119
122 122 122
123 123 123
124 124 124
116 116 116
118 118 118
134 134 134
133 133 133
192 192 192
200 200 200
212 212 212
236 236 236
219 219 219
150 150 150
152 152 152
155 155 155
146 146 146
148 148 148
151 151 151
164 164 164
193 193 193
178 178 178
204 204 204
244 244 244
255 255 255
244 244 244
204 204 204
178 178 178
164 164 164
163 163 163
151 151 151
148 148 148
202 202 202
255 255 255
250 250 250
239 239 239
230 230 230
221 221 221
212 212 212
205 205 205
197 197 197
191 191 191
184 184 184
176 176 176
137 137 137
117 117 117
117 117 117
116 116 116
153 153 153
185 185 185
255 255 255
184 184 184
148 148 148
124 124 124
115 115 115
101 101 101
98 98 98
96 96 96
93 93 93
92 92 92
206 206 206
115 115 115
112 112 112
109 109 109
107 107 107
105 105 105
103 103 103
101 101 101
99 99 99
97 97 97
95 95 95
92 92 92
68 68 68
67 67 67
69 69 69
70 70 70
72 72 72
73 73 73
74 74 74
75 75 75
77 77 77
78 78 78
88 88 88
90 90 90
92 92 92
93 93 93
94 94 94
96 96 96
97 97 97
89 89 89
91 91 91
93 93 93
94 94 94
110 110 110
108 108 108
108 108 108
111 111 111
128 128 128
125 125 125
125 125 125
125 125 125
125 125 125
126 126 126
127 127 127
117 117 117
119 119 119
122 122 122
134 134 134
152 152 152
149 149 149
145 145 145
199 199 199
150 150 150
153 153 153
156 156 156
148 148 148
151 151 151
154 154 154
157 157 157
177 177 177
175 175 175
176 176 176
177 177 177
193 193 193
252 252 252
193 193 193
177 177 177
176 176 176
176 176 176
177 177 177
157 157 157
154 154 154
160 160 160
223 223 223
218 218 218
211 211 211
203 203 203
196 196 196
189 189 189
183 183 183
176 176 176
171 171 171
165 165 165
152 152 152
132 132 132
117 117 117
117 117 117
116 116 116
139 139 139
161 161 161
204 204 204
115 115 115
112 112 112
114 114 114
111 111 111
102 102 102
98 98 98
96 96 96
94 94 94
93 93 93
156 156 156
108 108 108
105 105 105
103 103 103
101 101 101
100 100 100
98 98 98
96 96 96
94 94 94
92 92 92
91 91 91
89 89 89
72 72 72
70 70 70
72 72 72
73 73 73
74 74 74
75 75 75
76 76 76
78 78 78
79 79 79
80 80 80
81 81 81
91 91 91
93 93 93
94 94 94
95 95 95
97 97 97
89 89 89
91 91 91
92 92 92
94 94 94
95 95 95
104 104 104
106 106 106
109 109 109
111 111 111
127 127 127
127 127 127
127 127 127
127 127 127
127 127 127
128 128 128
115 115 115
118 118 118
120 120 120
123 123 123
125 125 125
157 157 157
153 153 153
150 150 150
158 158 158
151 151 151
155 155 155
148 148 148
152 152 152
155 155 155
159 159 159
162 162 162
173 173 173
176 176 176
178 178 178
180 180 180
187 187 187
218 218 218
187 187 187
180 180 180
178 178 178
176 176 176
173 173 173
162 162 162
159 159 159
166 166 166
203 203 203
197 197 197
190 190 190
183 183 183
177 177 177
170 170 170
164 164 164
159 159 159
154 154 154
148 148 148
127 127 127
119 119 119
118 118 118
117 117 117
115 115 115
130 130 130
144 144 144
114 114 114
112 112 112
110 110 110
108 108 108
103 103 103
102 102 102
99 99 99
95 95 95
95 95 95
94 94 94
128 128 128
101 101 101
99 99 99
98 98 98
96 96 96
94 94 94
93 93 93
91 91 91
90 90 90
88 88 88
87 87 87
85 85 85
74 74 74
73 73 73
74 74 74
75 75 75
76 76 76
77 77 77
78 78 78
79 79 79
80 80 80
82 82 82
83 83 83
84 84 84
94 94 94
95 95 95
96 96 96
89 89 89
90 90 90
92 92 92
93 93 93
95 95 95
96 96 96
97 97 97
106 106 106
109 109 109
111 111 111
124 124 124
125 125 125
126 126 126
126 126 126
127 127 127
128 128 128
115 115 115
118 118 118
120 120 120
123 123 123
126 126 126
129 129 129
142 142 142
156 156 156
149 149 149
153 153 153
147 147 147
151 151 151
155 155 155
159 159 159
163 163 163
166 166 166
169 169 169
182 182 182
184 184 184
186 186 186
187 187 187
188 188 188
187 187 187
186 186 186
184 184 184
182 182 182
169 169 169
166 166 166
163 163 163
159 159 159
233 233 233
190 190 190
183 183 183
175 175 175
168 168 168
162 162 162
155 155 155
150 150 150
144 144 144
135 135 135
128 128 128
119 119 119
118 118 118
117 117 117
115 115 115
146 146 146
116 116 116
114 114 114
113 113 113
111 111 111
109 109 109
108 108 108
128 128 128
99 99 99
95 95 95
95 95 95
94 94 94
114 114 114
96 96 96
95 95 95
93 93 93
92 92 92
91 91 91
89 89 89
88 88 88
87 87 87
85 85 85
84 84 84
83 83 83
76 76 76
75 75 75
75 75 75
76 76 76
77 77 77
78 78 78
79 79 79
81 81 81
82 82 82
83 83 83
84 84 84
85 85 85
86 86 86
95 95 95
88 88 88
90 90 90
91 91 91
92 92 92
93 93 93
95 95 95
96 96 96
97 97 97
99 99 99
100 100 100
110 110 110
112 112 112
123 123 123
124 124 124
125 125 125
111 111 111
113 113 113
115 115 115
118 118 118
121 121 121
123 123 123
127 127 127
130 130 130
133 133 133
146 146 146
151 151 151
145 145 145
149 149 149
153 153 153
158 158 158
162 162 162
166 166 166
170 170 170
173 173 173
176 176 176
188 188 188
190 190 190
192 192 192
192 192 192
192 192 192
190 190 190
188 188 188
176 176 176
173 173 173
170 170 170
166 166 166
162 162 162
158 158 158
214 214 214
181 181 181
173 173 173
165 165 165
158 158 158
152 152 152
145 145 145
138 138 138
129 129 129
121 121 121
118 118 118
118 118 118
118 118 118
120 120 120
118 118 118
116 116 116
115 115 115
113 113 113
111 111 111
109 109 109
108 108 108
106 106 106
103 103 103
98 98 98
95 95 95
94 94 94
105 105 105
93 93 93
92 92 92
91 91 91
90 90 90
88 88 88
87 87 87
86 86 86
85 85 85
84 84 84
83 83 83
81 81 81
77 77 77
76 76 76
77 77 77
78 78 78
79 79 79
79 79 79
80 80 80
81 81 81
82 82 82
83 83 83
85 85 85
86 86 86
87 87 87
88 88 88
89 89 89
90 90 90
91 91 91
92 92 92
93 93 93
95 95 95
96 96 96
97 97 97
99 99 99
100 100 100
102 102 102
103 103 103
105 105 105
107 107 107
109 109 109
111 111 111
113 113 113
115 115 115
118 118 118
121 121 121
124 124 124
127 127 127
131 131 131
134 134 134
138 138 138
142 142 142
147 147 147
151 151 151
156 156 156
160 160 160
164 164 164
169 169 169
172 172 172
176 176 176
179 179 179
181 181 181
183 183 183
184 184 184
185 185 185
184 184 184
183 183 183
181 181 181
179 179 179
176 176 176
172 172 172
169 169 169
164 164 164
160 160 160
156 156 156
189 189 189
178 178 178
167 167 167
159 159 159
152 152 152
142 142 142
135 135 135
124 124 124
121 121 121
118 118 118
115 115 115
113 113 113
111 111 111
109 109 109
107 107 107
105 105 105
103 103 103
102 102 102
100 100 100
99 99 99
97 97 97
96 96 96
95 95 95
93 93 93
94 94 94
102 102 102
93 93 93
91 91 91
90 90 90
89 89 89
88 88 88
87 87 87
86 86 86
85 85 85
84 84 84
83 83 83
82 82 82
79 79 79
78 78 78
78 78 78
78 78 78
79 79 79
80 80 80
81 81 81
82 82 82
83 83 83
84 84 84
85 85 85
86 86 86
87 87 87
88 88 88
89 89 89
90 90 90
91 91 91
92 92 92
93 93 93
95 95 95
96 96 96
97 97 97
98 98 98
100 100 100
101 101 101
103 103 103
105 105 105
107 107 107
109 109 109
111 111 111
113 113 113
116 116 116
118 118 118
121 121 121
124 124 124
128 128 128
131 131 131
135 135 135
139 139 139
144 144 144
148 148 148
153 153 153
157 157 157
162 162 162
166 166 166
170 170 170
174 174 174
178 178 178
181 181 181
183 183 183
185 185 185
186 186 186
187 187 187
186 186 186
185 185 185
183 183 183
181 181 181
178 178 178
174 174 174
170 170 170
166 166 166
162 162 162
157 157 157
153 153 153
148 148 148
153 153 153
153 153 153
145 145 145
131 131 131
128 128 128
124 124 124
121 121 121
118 118 118
116 116 116
113 113 113
111 111 111
109 109 109
107 107 107
105 105 105
103 103 103
101 101 101
100 100 100
98 98 98
97 97 97
96 96 96
95 95 95
93 93 93
92 92 92
99 99 99
102 102 102
101 101 101
95 95 95
94 94 94
93 93 93
92 92 92
91 91 91
90 90 90
89 89 89
88 88 88
87 87 87
79 79 79
78 78 78
78 78 78
79 79 79
80 80 80
81 81 81
82 82 82
83 83 83
83 83 83
84 84 84
85 85 85
86 86 86
87 87 87
88 88 88
89 89 89
90 90 90
91 91 91
92 92 92
93 93 93
94 94 94
96 96 96
97 97 97
98 98 98
100 100 100
101 101 101
103 103 103
105 105 105
107 107 107
109 109 109
111 111 111
113 113 113
116 116 116
119 119 119
122 122 122
125 125 125
129 129 129
132 132 132
136 136 136
141 141 141
145 145 145
149 149 149
154 154 154
159 159 159
163 163 163
168 168 168
172 172 172
176 176 176
179 179 179
182 182 182
185 185 185
187 187 187
188 188 188
188 188 188
188 188 188
187 187 187
185 185 185
182 182 182
179 179 179
176 176 176
172 172 172
168 168 168
163 163 163
159 159 159
154 154 154
149 149 149
145 145 145
141 141 141
136 136 136
132 132 132
129 129 129
125 125 125
122 122 122
119 119 119
116 116 116
113 113 113
111 111 111
109 109 109
107 107 107
105 105 105
103 103 103
101 101 101
100 100 100
98 98 98
97 97 97
96 96 96
94 94 94
93 93 93
92 92 92
91 91 91
90 90 90
89 89 89
88 88 88
87 87 87
86 86 86
85 85 85
84 84 84
83 83 83
83 83 83
82 82 82
81 81 81
80 80 80
79 79 79
79 79 79
80 80 80
80 80 80
81 81 81
82 82 82
83 83 83
84 84 84
85 85 85
85 85 85
86 86 86
87 87 87
88 88 88
89 89 89
90 90 90
91 91 91
92 92 92
93 93 93
94 94 94
96 96 96
97 97 97
98 98 98
100 100 100
101 101 101
103 103 103
105 105 105
107 107 107
109 109 109
111 111 111
114 114 114
116 116 116
119 119 119
122 122 122
126 126 126
129 129 129
133 133 133
137 137 137
142 142 142
146 146 146
151 151 151
155 155 155
160 160 160
164 164 164
169 169 169
173 173 173
177 177 177
180 180 180
183 183 183
186 186 186
187 187 187
188 188 188
189 189 189
188 188 188
187 187 187
186 186 186
183 183 183
180 180 180
177 177 177
173 173 173
169 169 169
164 164 164
160 160 160
155 155 155
151 151 151
146 146 146
142 142 142
137 137 137
133 133 133
129 129 129
126 126 126
122 122 122
119 119 119
116 116 116
114 114 114
111 111 111
109 109 109
107 107 107
105 105 105
103 103 103
101 101 101
100 100 100
98 98 98
97 97 97
96 96 96
94 94 94
93 93 93
92 92 92
91 91 91
90 90 90
89 89 89
88 88 88
87 87 87
86 86 86
85 85 85
85 85 85
84 84 84
83 83 83
82 82 82
81 81 81
80 80 80
80 80 80
79 79 79
80 80 80
81 81 81
82 82 82
82 82 82
83 83 83
84 84 84
85 85 85
86 86 86
86 86 86
87 87 87
88 88 88
89 89 89
90 90 90
91 91 91
92 92 92
93 93 93
94 94 94
96 96 96
97 97 97
98 98 98
100 100 100
101 101 101
103 103 103
105 105 105
107 107 107
109 109 109
112 112 112
114 114 114
117 117 117
120 120 120
123 123 123
127 127 127
130 130 130
134 134 134
138 138 138
143 143 143
147 147 147
152 152 152
156 156 156
161 161 161
165 165 165
170 170 170
174 174 174
178 178 178
181 181 181
184 184 184
186 186 186
188 188 188
189 189 189
189 189 189
189 189 189
188 188 188
186 186 186
184 184 184
181 181 181
178 178 178
174 174 174
170 170 170
165 165 165
161 161 161
156 156 156
152 152 152
147 147 147
143 143 143
138 138 138
134 134 134
130 130 130
127 127 127
123 123 123
120 120 120
117 117 117
114 114 114
112 112 112
109 109 109
107 107 107
105 105 105
103 103 103
101 101 101
100 100 100
98 98 98
97 97 97
96 96 96
94 94 94
93 93 93
92 92 92
91 91 91
90 90 90
89 89 89
88 88 88
87 87 87
86 86 86
86 86 86
85 85 85
84 84 84
83 83 83
82 82 82
82 82 82
81 81 81
80 80 80
80 80 80
81 81 81
81 81 81
82 82 82
83 83 83
84 84 84
84 84 84
85 85 85
86 86 86
87 87 87
87 87 87
88 88 88
89 89 89
90 90 90
91 91 91
92 92 92
93 93 93
94 94 94
96 96 96
97 97 97
98 98 98
100 100 100
102 102 102
103 103 103
105 105 105
107 107 107
110 110 110
112 112 112
115 115 115
118 118 118
121 121 121
124 124 124
128 128 128
131 131 131
135 135 135
139 139 139
144 144 144
148 148 148
153 153 153
157 157 157
162 162 162
166 166 166
170 170 170
174 174 174
178 178 178
181 181 181
184 184 184
186 186 186
188 188 188
189 189 189
189 189 189
189 189 189
188 188 188
186 186 186
184 184 184
181 181 181
178 178 178
174 174 174
170 170 170
166 166 166
162 162 162
157 157 157
153 153 153
148 148 148
144 144 144
139 139 139
135 135 135
131 131 131
128 128 128
124 124 124
121 121 121
118 118 118
115 115 115
112 112 112
110 110 110
107 107 107
105 105 105
103 103 103
102 102 102
100 100 100
98 98 98
97 97 97
96 96 96
94 94 94
93 93 93
92 92 92
91 91 91
90 90 90
89 89 89
88 88 88
87 87 87
87 87 87
86 86 86
85 85 85
84 84 84
84 84 84
83 83 83
82 82 82
81 81 81
81 81 81
80 80 80
81 81 81
82 82 82
82 82 82
83 83 83
84 84 84
85 85 85
85 85 85
86 86 86
87 87 87
88 88 88
89 89 89
89 89 89
90 90 90
91 91 91
92 92 92
94 94 94
95 95 95
96 96 96
97 97 97
99 99 99
100 100 100
102 102 102
104 104 104
106 106 106
108 108 108
110 110 110
113 113 113
116 116 116
119 119 119
122 122 122
125 125 125
129 129 129
132 132 132
136 136 136
141 141 141
145 145 145
149 149 149
154 154 154
158 158 158
162 162 162
167 167 167
171 171 171
175 175 175
178 178 178
181 181 181
184 184 184
186 186 186
188 188 188
189 189 189
189 189 189
189 189 189
188 188 188
186 186 186
184 184 184
181 181 181
178 178 178
175 175 175
171 171 171
167 167 167
162 162 162
158 158 158
154 154 154
149 149 149
145 145 145
141 141 141
136 136 136
132 132 132
129 129 129
125 125 125
122 122 122
119 119 119
116 116 116
113 113 113
110 110 110
108 108 108
106 106 106
104 104 104
102 102 102
100 100 100
99 99 99
97 97 97
96 96 96
95 95 95
94 94 94
92 92 92
91 91 91
90 90 90
89 89 89
89 89 89
88 88 88
87 87 87
86 86 86
85 85 85
85 85 85
84 84 84
83 83 83
82 82 82
82 82 82
81 81 81
